# xmcd CD database file
#
# Track frame offsets:
#	150
#	12797
#	25716
#	39461
#	53196
#	66031
#	78717
#	90761
#	103928
#	118572
#	133901
#	149389
#	164291
#	179160
#	193627
#	207549
#	221664
#	233861
#	244905
#	258751
#	274311
#	288547
#	301962
#	314136
#
# Disc length: 4368 seconds
#
# Revision: 1
# Processed by: cddbd v1.5.2PL0 Copyright (c) Steve Scherf et al.
# Submitted via: CDex 1.70beta2
#
DISCID=6c110e18
DTITLE=Fats Waller - Jazz Roads CD156 - Swing - Fats Waller Vol.1 (1929-34)
DYEAR=2006
DGENRE=Jazz
TTITLE0=Fats Waller  - Handful Of Keys
TTITLE1=Fats Waller  - Numb Fumblin'
TTITLE2=Fats Waller  - Ain't Misbehavin'
TTITLE3=Fats Waller  - Sweet Savannah Sue
TTITLE4=Fats Waller  - I've Got A Feeling I'm Falling
TTITLE5=Fats Waller  - Love Me Or Leave Me (1)
TTITLE6=Fats Waller  - Love Me Or Leave Me (2)
TTITLE7=Fats Waller  - Gladyse
TTITLE8=Fats Waller  - Valentine Stomp (1)
TTITLE9=Fats Waller  - Valentine Stomp (2)
TTITLE10=Fats Waller  - Waiting At The End Of The Road
TTITLE11=Fats Waller  - Baby, Oh! Where Can You Be
TTITLE12=Fats Waller  - Goin' About (1)
TTITLE13=Fats Waller  - Goin' About (2)
TTITLE14=Fats Waller  - My Feelin's Are Hurt
TTITLE15=Fats Waller  - Smashin' Thirds
TTITLE16=Fats Waller  - My Fate Is In Your Hand
TTITLE17=Fats Waller  - Turn On The Heat
TTITLE18=Fats Waller and Bennie Paine - St Louis Blues
TTITLE19=Fats Waller and Bennie Paine - After You've Gone
TTITLE20=Fats Waller - African Ripples
TTITLE21=Fats Waller - Clothes Linen Ballet
TTITLE22=Fats Waller - Alligator Crawl
TTITLE23=Fats Waller - Viper's Drag
EXTD=YEAR: 2006
EXTT0=
EXTT1=
EXTT2=
EXTT3=
EXTT4=
EXTT5=
EXTT6=
EXTT7=
EXTT8=
EXTT9=
EXTT10=
EXTT11=
EXTT12=
EXTT13=
EXTT14=
EXTT15=
EXTT16=
EXTT17=
EXTT18=
EXTT19=
EXTT20=
EXTT21=
EXTT22=
EXTT23=
PLAYORDER=
